{
  "accessors": [
    {
      "bufferView": 2,
      "componentType": 5126,
      "count": 14614,
      "max": [
        21.715099334716797,
        15.6318998336792,
        163.95849609375
      ],
      "min": [
        -22.20009994506836,
        -0.4805999994277954,
        90.60320281982422
      ],
      "type": "VEC3"
    },
    {
      "bufferView": 2,
      "byteOffset": 175368,
      "componentType": 5126,
      "count": 14614,
      "max": [
        0.9999338388442993,
        0.9999991655349731,
        0.9764276146888733
      ],
      "min": [
        -0.9999337196350098,
        -0.9999966621398926,
        -0.9760718941688538
      ],
      "type": "VEC3"
    },
    {
      "bufferView": 1,
      "componentType": 5126,
      "count": 14614,
      "max": [
        2.8636999130249023,
        0.939300000667572
      ],
      "min": [
        2.2757999897003174,
        0.052000001072883606
      ],
      "type": "VEC2"
    },
    {
      "bufferView": 0,
      "componentType": 5125,
      "count": 84528,
      "type": "SCALAR"
    },
    {
      "bufferView": 2,
      "byteOffset": 350736,
      "componentType": 5126,
      "count": 7245,
      "max": [
        55.11470031738281,
        3.7114999294281006,
        159.2805938720703
      ],
      "min": [
        -54.938899993896484,
        -15.57409954071045,
        102.44000244140625
      ],
      "type": "VEC3"
    },
    {
      "bufferView": 2,
      "byteOffset": 437676,
      "componentType": 5126,
      "count": 7245,
      "max": [
        0.9999761581420898,
        0.9996381402015686,
        1.0
      ],
      "min": [
        -1.0,
        -0.9996381402015686,
        -1.0
      ],
      "type": "VEC3"
    },
    {
      "bufferView": 1,
      "byteOffset": 116912,
      "componentType": 5126,
      "count": 7245,
      "max": [
        0.04740000143647194,
        0.04699999839067459
      ],
      "min": [
        -0.047200001776218414,
        -0.04670000076293945
      ],
      "type": "VEC2"
    },
    {
      "bufferView": 0,
      "byteOffset": 338112,
      "componentType": 5125,
      "count": 33642,
      "type": "SCALAR"
    },
    {
      "bufferView": 2,
      "byteOffset": 524616,
      "componentType": 5126,
      "count": 9234,
      "max": [
        54.70130157470703,
        3.3833999633789063,
        158.80990600585938
      ],
      "min": [
        -54.569000244140625,
        -15.364299774169922,
        102.92169952392578
      ],
      "type": "VEC3"
    },
    {
      "bufferView": 2,
      "byteOffset": 635424,
      "componentType": 5126,
      "count": 9234,
      "max": [
        0.9997512698173523,
        0.9994310140609741,
        0.9999395608901978
      ],
      "min": [
        -0.9998064637184143,
        -0.9984111785888672,
        -0.936690628528595
      ],
      "type": "VEC3"
    },
    {
      "bufferView": 1,
      "byteOffset": 174872,
      "componentType": 5126,
      "count": 9234,
      "max": [
        -0.02800000086426735,
        -0.0215000007301569
      ],
      "min": [
        -0.04859999939799309,
        -0.04830000177025795
      ],
      "type": "VEC2"
    },
    {
      "bufferView": 0,
      "byteOffset": 472680,
      "componentType": 5125,
      "count": 46656,
      "type": "SCALAR"
    },
    {
      "bufferView": 2,
      "byteOffset": 746232,
      "componentType": 5126,
      "count": 211,
      "max": [
        15.118800163269043,
        -6.822500228881836,
        147.51089477539063
      ],
      "min": [
        6.470399856567383,
        -9.038100242614746,
        146.5872039794922
      ],
      "type": "VEC3"
    },
    {
      "bufferView": 2,
      "byteOffset": 748764,
      "componentType": 5126,
      "count": 211,
      "max": [
        0.7856845855712891,
        0.9915933609008789,
        0.9916665554046631
      ],
      "min": [
        -0.9684521555900574,
        -0.7987023591995239,
        -0.08549757301807404
      ],
      "type": "VEC3"
    },
    {
      "bufferView": 1,
      "byteOffset": 248744,
      "componentType": 5126,
      "count": 211,
      "max": [
        1.937999963760376,
        0.868399977684021
      ],
      "min": [
        1.8313000202178955,
        0.867900013923645
      ],
      "type": "VEC2"
    },
    {
      "bufferView": 0,
      "byteOffset": 659304,
      "componentType": 5125,
      "count": 996,
      "type": "SCALAR"
    },
    {
      "bufferView": 2,
      "byteOffset": 751296,
      "componentType": 5126,
      "count": 8378,
      "max": [
        57.33509826660156,
        11.020099639892578,
        156.84120178222656
      ],
      "min": [
        18.357099533081055,
        -6.422999858856201,
        106.87079620361328
      ],
      "type": "VEC3"
    },
    {
      "bufferView": 2,
      "byteOffset": 851832,
      "componentType": 5126,
      "count": 8378,
      "max": [
        0.9971652030944824,
        0.9999310970306396,
        0.9991081357002258
      ],
      "min": [
        -0.9975199699401855,
        -0.99981290102005,
        -0.9984793066978455
      ],
      "type": "VEC3"
    },
    {
      "bufferView": 1,
      "byteOffset": 250432,
      "componentType": 5126,
      "count": 8378,
      "max": [
        2.7620999813079834,
        1.8736000061035156
      ],
      "min": [
        2.3171000480651855,
        1.1338000297546387
      ],
      "type": "VEC2"
    },
    {
      "bufferView": 0,
      "byteOffset": 663288,
      "componentType": 5125,
      "count": 48120,
      "type": "SCALAR"
    },
    {
      "bufferView": 2,
      "byteOffset": 952368,
      "componentType": 5126,
      "count": 8468,
      "max": [
        -18.693700790405273,
        11.08650016784668,
        156.91700744628906
      ],
      "min": [
        -57.3557014465332,
        -6.422900199890137,
        106.65370178222656
      ],
      "type": "VEC3"
    },
    {
      "bufferView": 2,
      "byteOffset": 1053984,
      "componentType": 5126,
      "count": 8468,
      "max": [
        0.9997549653053284,
        0.9999001026153564,
        0.998304545879364
      ],
      "min": [
        -0.9998766183853149,
        -0.999901294708252,
        -0.9973166584968567
      ],
      "type": "VEC3"
    },
    {
      "bufferView": 1,
      "byteOffset": 317456,
      "componentType": 5126,
      "count": 8468,
      "max": [
        1.7425999641418457,
        1.8736000061035156
      ],
      "min": [
        1.2975000143051147,
        1.1338000297546387
      ],
      "type": "VEC2"
    },
    {
      "bufferView": 0,
      "byteOffset": 855768,
      "componentType": 5125,
      "count": 48648,
      "type": "SCALAR"
    },
    {
      "bufferView": 2,
      "byteOffset": 1155600,
      "componentType": 5126,
      "count": 1587,
      "max": [
        55.9109001159668,
        5.797900199890137,
        120.11090087890625
      ],
      "min": [
        -56.105098724365234,
        -5.642099857330322,
        109.6240005493164
      ],
      "type": "VEC3"
    },
    {
      "bufferView": 2,
      "byteOffset": 1174644,
      "componentType": 5126,
      "count": 1587,
      "max": [
        0.9986571669578552,
        0.9992586374282837,
        0.9997919201850891
      ],
      "min": [
        -0.9987534284591675,
        -0.9972252249717712,
        -0.9986108541488647
      ],
      "type": "VEC3"
    },
    {
      "bufferView": 1,
      "byteOffset": 385200,
      "componentType": 5126,
      "count": 1587,
      "max": [
        2.687999963760376,
        1.3880000114440918
      ],
      "min": [
        1.3765000104904175,
        1.1333999633789063
      ],
      "type": "VEC2"
    },
    {
      "bufferView": 0,
      "byteOffset": 1050360,
      "componentType": 5125,
      "count": 7344,
      "type": "SCALAR"
    },
    {
      "bufferView": 2,
      "byteOffset": 1193688,
      "componentType": 5126,
      "count": 23018,
      "max": [
        21.34079933166504,
        7.891600131988525,
        168.29530334472656
      ],
      "min": [
        -21.740400314331055,
        -15.5733003616333,
        92.47599792480469
      ],
      "type": "VEC3"
    },
    {
      "bufferView": 2,
      "byteOffset": 1469904,
      "componentType": 5126,
      "count": 23018,
      "max": [
        0.9999622106552124,
        0.9999940395355225,
        0.9990846514701843
      ],
      "min": [
        -0.9999622106552124,
        -0.9999418258666992,
        -0.9989723563194275
      ],
      "type": "VEC3"
    },
    {
      "bufferView": 1,
      "byteOffset": 397896,
      "componentType": 5126,
      "count": 23018,
      "max": [
        1.937999963760376,
        0.868399977684021
      ],
      "min": [
        1.0814000368118286,
        0.04899999871850014
      ],
      "type": "VEC2"
    },
    {
      "bufferView": 0,
      "byteOffset": 1079736,
      "componentType": 5125,
      "count": 129240,
      "type": "SCALAR"
    },
    {
      "bufferView": 2,
      "byteOffset": 1746120,
      "componentType": 5126,
      "count": 201,
      "max": [
        14.979499816894531,
        -6.6722002029418945,
        147.372802734375
      ],
      "min": [
        6.210999965667725,
        -11.166500091552734,
        136.82249450683594
      ],
      "type": "VEC3"
    },
    {
      "bufferView": 2,
      "byteOffset": 1748532,
      "componentType": 5126,
      "count": 201,
      "max": [
        0.9665157794952393,
        0.9696557521820068,
        0.963098406791687
      ],
      "min": [
        -0.999942421913147,
        -0.9407521486282349,
        -0.9953189492225647
      ],
      "type": "VEC3"
    },
    {
      "bufferView": 1,
      "byteOffset": 582040,
      "componentType": 5126,
      "count": 201,
      "max": [
        1.937999963760376,
        0.8391000032424927
      ],
      "min": [
        1.6258000135421753,
        0.5989000201225281
      ],
      "type": "VEC2"
    },
    {
      "bufferView": 0,
      "byteOffset": 1596696,
      "componentType": 5125,
      "count": 600,
      "type": "SCALAR"
    },
    {
      "bufferView": 2,
      "byteOffset": 1750944,
      "componentType": 5126,
      "count": 3910,
      "max": [
        17.491300582885742,
        15.614399909973145,
        164.56089782714844
      ],
      "min": [
        -17.866300582885742,
        -15.266900062561035,
        90.5625
      ],
      "type": "VEC3"
    },
    {
      "bufferView": 2,
      "byteOffset": 1797864,
      "componentType": 5126,
      "count": 3910,
      "max": [
        0.9999810457229614,
        0.999776303768158,
        0.9844974279403687
      ],
      "min": [
        -0.9998962879180908,
        -0.9998065829277039,
        -0.9999843835830688
      ],
      "type": "VEC3"
    },
    {
      "bufferView": 1,
      "byteOffset": 583648,
      "componentType": 5126,
      "count": 3910,
      "max": [
        2.847100019454956,
        0.7817000150680542
      ],
      "min": [
        1.0813000202178955,
        0.04899999871850014
      ],
      "type": "VEC2"
    },
    {
      "bufferView": 0,
      "byteOffset": 1599096,
      "componentType": 5125,
      "count": 18480,
      "type": "SCALAR"
    }
  ],
  "asset": {
    "extras": {
      "author": "mihirsikhwal (https://sketchfab.com/mihirsikhwal)",
      "license": "CC-BY-4.0 (http://creativecommons.org/licenses/by/4.0/)",
      "source": "https://sketchfab.com/3d-models/white-shirt-f66aba2a49064ae7a66afe9bf1613a32",
      "title": "white shirt"
    },
    "generator": "Sketchfab-15.38.0",
    "version": "2.0"
  },
  "bufferViews": [
    {
      "buffer": 0,
      "byteLength": 1673016,
      "name": "floatBufferViews",
      "target": 34963
    },
    {
      "buffer": 0,
      "byteLength": 614928,
      "byteOffset": 1673016,
      "byteStride": 8,
      "name": "floatBufferViews",
      "target": 34962
    },
    {
      "buffer": 0,
      "byteLength": 1844784,
      "byteOffset": 2287944,
      "byteStride": 12,
      "name": "floatBufferViews",
      "target": 34962
    }
  ],
  "buffers": [
    {
      "byteLength": 4132728,
      "uri": "scene.bin"
    }
  ],
  "materials": [
    {
      "doubleSided": true,
      "name": "Back",
      "pbrMetallicRoughness": {
        "baseColorFactor": [
          0.588,
          0.588,
          0.588,
          1.0
        ],
        "metallicFactor": 0.0
      }
    },
    {
      "doubleSided": true,
      "name": "Bottons",
      "pbrMetallicRoughness": {
        "baseColorFactor": [
          0.0392,
          0.0431,
          0.0431,
          1.0
        ],
        "metallicFactor": 0.0,
        "roughnessFactor": 0.8116295929835691
      }
    },
    {
      "doubleSided": true,
      "name": "Bottons_Threads",
      "pbrMetallicRoughness": {
        "baseColorFactor": [
          0.0549,
          0.0706,
          0.0706,
          1.0
        ],
        "metallicFactor": 0.0
      }
    },
    {
      "doubleSided": true,
      "name": "Cuffs_Boundry",
      "pbrMetallicRoughness": {
        "baseColorFactor": [
          0.588,
          0.588,
          0.588,
          1.0
        ],
        "metallicFactor": 0.0
      }
    },
    {
      "doubleSided": true,
      "name": "Front",
      "pbrMetallicRoughness": {
        "baseColorFactor": [
          0.588,
          0.588,
          0.588,
          1.0
        ],
        "metallicFactor": 0.0
      }
    },
    {
      "doubleSided": true,
      "name": "Pockert_Boundry",
      "pbrMetallicRoughness": {
        "baseColorFactor": [
          0.588,
          0.588,
          0.588,
          1.0
        ],
        "metallicFactor": 0.0
      }
    },
    {
      "doubleSided": true,
      "name": "Shirt_Middle_Boundry",
      "pbrMetallicRoughness": {
        "baseColorFactor": [
          0.588,
          0.588,
          0.588,
          1.0
        ],
        "metallicFactor": 0.0
      }
    },
    {
      "doubleSided": true,
      "name": "Sleeve_Left",
      "pbrMetallicRoughness": {
        "baseColorFactor": [
          0.588,
          0.588,
          0.588,
          1.0
        ],
        "metallicFactor": 0.0
      }
    },
    {
      "doubleSided": true,
      "name": "Sleeve_Right",
      "pbrMetallicRoughness": {
        "baseColorFactor": [
          0.588,
          0.588,
          0.588,
          1.0
        ],
        "metallicFactor": 0.0
      }
    }
  ],
  "meshes": [
    {
      "name": "Object_0",
      "primitives": [
        {
          "attributes": {
            "NORMAL": 1,
            "POSITION": 0,
            "TEXCOORD_0": 2
          },
          "indices": 3,
          "material": 0,
          "mode": 4
        }
      ]
    },
    {
      "name": "Object_1",
      "primitives": [
        {
          "attributes": {
            "NORMAL": 5,
            "POSITION": 4,
            "TEXCOORD_0": 6
          },
          "indices": 7,
          "material": 1,
          "mode": 4
        }
      ]
    },
    {
      "name": "Object_2",
      "primitives": [
        {
          "attributes": {
            "NORMAL": 9,
            "POSITION": 8,
            "TEXCOORD_0": 10
          },
          "indices": 11,
          "material": 2,
          "mode": 4
        }
      ]
    },
    {
      "name": "Object_3",
      "primitives": [
        {
          "attributes": {
            "NORMAL": 13,
            "POSITION": 12,
            "TEXCOORD_0": 14
          },
          "indices": 15,
          "material": 5,
          "mode": 4
        }
      ]
    },
    {
      "name": "Object_4",
      "primitives": [
        {
          "attributes": {
            "NORMAL": 17,
            "POSITION": 16,
            "TEXCOORD_0": 18
          },
          "indices": 19,
          "material": 7,
          "mode": 4
        }
      ]
    },
    {
      "name": "Object_5",
      "primitives": [
        {
          "attributes": {
            "NORMAL": 21,
            "POSITION": 20,
            "TEXCOORD_0": 22
          },
          "indices": 23,
          "material": 8,
          "mode": 4
        }
      ]
    },
    {
      "name": "Object_6",
      "primitives": [
        {
          "attributes": {
            "NORMAL": 25,
            "POSITION": 24,
            "TEXCOORD_0": 26
          },
          "indices": 27,
          "material": 3,
          "mode": 4
        }
      ]
    },
    {
      "name": "Object_7",
      "primitives": [
        {
          "attributes": {
            "NORMAL": 29,
            "POSITION": 28,
            "TEXCOORD_0": 30
          },
          "indices": 31,
          "material": 4,
          "mode": 4
        }
      ]
    },
    {
      "name": "Object_8",
      "primitives": [
        {
          "attributes": {
            "NORMAL": 33,
            "POSITION": 32,
            "TEXCOORD_0": 34
          },
          "indices": 35,
          "material": 4,
          "mode": 4
        }
      ]
    },
    {
      "name": "Object_9",
      "primitives": [
        {
          "attributes": {
            "NORMAL": 37,
            "POSITION": 36,
            "TEXCOORD_0": 38
          },
          "indices": 39,
          "material": 6,
          "mode": 4
        }
      ]
    }
  ],
  "nodes": [
    {
      "children": [
        1
      ],
      "matrix": [
        1.0,
        0.0,
        0.0,
        0.0,
        0.0,
        2.220446049250313e-16,
        -1.0,
        0.0,
        0.0,
        1.0,
        2.220446049250313e-16,
        0.0,
        0.0,
        0.0,
        0.0,
        1.0
      ],
      "name": "Sketchfab_model"
    },
    {
      "children": [
        2,
        3,
        4,
        5,
        6,
        7,
        8,
        9,
        10,
        11
      ],
      "name": "Shirt OBJ.obj.cleaner.materialmerger.gles"
    },
    {
      "mesh": 0,
      "name": "Object_2"
    },
    {
      "mesh": 1,
      "name": "Object_3"
    },
    {
      "mesh": 2,
      "name": "Object_4"
    },
    {
      "mesh": 3,
      "name": "Object_5"
    },
    {
      "mesh": 4,
      "name": "Object_6"
    },
    {
      "mesh": 5,
      "name": "Object_7"
    },
    {
      "mesh": 6,
      "name": "Object_8"
    },
    {
      "mesh": 7,
      "name": "Object_9"
    },
    {
      "mesh": 8,
      "name": "Object_10"
    },
    {
      "mesh": 9,
      "name": "Object_11"
    }
  ],
  "scene": 0,
  "scenes": [
    {
      "name": "Sketchfab_Scene",
      "nodes": [
        0
      ]
    }
  ]
}
